<svg width="109" height="15" viewBox="0 0 109 15" fill="none" xmlns="http://www.w3.org/2000/svg">
<path d="M11.62 1.228V11H9.66V4.644L7.042 11H5.558L2.926 4.644V11H0.966V1.228H3.192L6.3 8.494L9.408 1.228H11.62ZM13.0538 7.094C13.0538 6.31 13.2078 5.61467 13.5158 5.008C13.8331 4.40133 14.2578 3.93467 14.7898 3.608C15.3311 3.28133 15.9331 3.118 16.5958 3.118C17.1745 3.118 17.6785 3.23467 18.1078 3.468C18.5465 3.70133 18.8965 3.99533 19.1578 4.35V3.244H21.1318V11H19.1578V9.866C18.9058 10.23 18.5558 10.5333 18.1078 10.776C17.6691 11.0093 17.1605 11.126 16.5818 11.126C15.9285 11.126 15.3311 10.958 14.7898 10.622C14.2578 10.286 13.8331 9.81467 13.5158 9.208C13.2078 8.592 13.0538 7.88733 13.0538 7.094ZM19.1578 7.122C19.1578 6.646 19.0645 6.24 18.8778 5.904C18.6911 5.55867 18.4391 5.29733 18.1218 5.12C17.8045 4.93333 17.4638 4.84 17.0998 4.84C16.7358 4.84 16.3998 4.92867 16.0918 5.106C15.7838 5.28333 15.5318 5.54467 15.3358 5.89C15.1491 6.226 15.0558 6.62733 15.0558 7.094C15.0558 7.56067 15.1491 7.97133 15.3358 8.326C15.5318 8.67133 15.7838 8.93733 16.0918 9.124C16.4091 9.31067 16.7451 9.404 17.0998 9.404C17.4638 9.404 17.8045 9.31533 18.1218 9.138C18.4391 8.95133 18.6911 8.69 18.8778 8.354C19.0645 8.00867 19.1578 7.598 19.1578 7.122ZM25.0061 4.616C25.2581 4.14933 25.5847 3.78533 25.9861 3.524C26.3967 3.26267 26.8634 3.132 27.3861 3.132V5.19H26.8681C26.2521 5.19 25.7854 5.33467 25.4681 5.624C25.1601 5.91333 25.0061 6.41733 25.0061 7.136V11H23.0461V3.244H25.0061V4.616ZM29.7002 2.32C29.3549 2.32 29.0656 2.21267 28.8322 1.998C28.6082 1.774 28.4962 1.49867 28.4962 1.172C28.4962 0.845333 28.6082 0.574666 28.8322 0.359999C29.0656 0.135999 29.3549 0.0239995 29.7002 0.0239995C30.0456 0.0239995 30.3302 0.135999 30.5542 0.359999C30.7876 0.574666 30.9042 0.845333 30.9042 1.172C30.9042 1.49867 30.7876 1.774 30.5542 1.998C30.3302 2.21267 30.0456 2.32 29.7002 2.32ZM30.6662 3.244V11H28.7062V3.244H30.6662ZM34.5627 4.364C34.8147 4.00933 35.1601 3.71533 35.5987 3.482C36.0467 3.23933 36.5554 3.118 37.1247 3.118C37.7874 3.118 38.3847 3.28133 38.9167 3.608C39.4581 3.93467 39.8827 4.40133 40.1907 5.008C40.5081 5.60533 40.6667 6.30067 40.6667 7.094C40.6667 7.88733 40.5081 8.592 40.1907 9.208C39.8827 9.81467 39.4581 10.286 38.9167 10.622C38.3847 10.958 37.7874 11.126 37.1247 11.126C36.5554 11.126 36.0514 11.0093 35.6127 10.776C35.1834 10.5427 34.8334 10.2487 34.5627 9.894V14.696H32.6027V3.244H34.5627V4.364ZM38.6647 7.094C38.6647 6.62733 38.5667 6.226 38.3707 5.89C38.1841 5.54467 37.9321 5.28333 37.6147 5.106C37.3067 4.92867 36.9707 4.84 36.6067 4.84C36.2521 4.84 35.9161 4.93333 35.5987 5.12C35.2907 5.29733 35.0387 5.55867 34.8427 5.904C34.6561 6.24933 34.5627 6.65533 34.5627 7.122C34.5627 7.58867 34.6561 7.99467 34.8427 8.34C35.0387 8.68533 35.2907 8.95133 35.5987 9.138C35.9161 9.31533 36.2521 9.404 36.6067 9.404C36.9707 9.404 37.3067 9.31067 37.6147 9.124C37.9321 8.93733 38.1841 8.67133 38.3707 8.326C38.5667 7.98067 38.6647 7.57 38.6647 7.094ZM45.535 11.126C44.7883 11.126 44.1163 10.9627 43.519 10.636C42.9217 10.3 42.4503 9.82867 42.105 9.222C41.769 8.61533 41.601 7.91533 41.601 7.122C41.601 6.32867 41.7737 5.62867 42.119 5.022C42.4737 4.41533 42.9543 3.94867 43.561 3.622C44.1677 3.286 44.8443 3.118 45.591 3.118C46.3377 3.118 47.0143 3.286 47.621 3.622C48.2277 3.94867 48.7037 4.41533 49.049 5.022C49.4037 5.62867 49.581 6.32867 49.581 7.122C49.581 7.91533 49.399 8.61533 49.035 9.222C48.6803 9.82867 48.195 10.3 47.579 10.636C46.9723 10.9627 46.291 11.126 45.535 11.126ZM45.535 9.446C45.8897 9.446 46.221 9.35733 46.529 9.18C46.8463 9.00267 47.0983 8.74133 47.285 8.396C47.4717 8.04133 47.565 7.61667 47.565 7.122C47.565 6.62733 47.4717 6.20733 47.285 5.862C47.0983 5.50733 46.851 5.24133 46.543 5.064C46.2443 4.88667 45.9177 4.798 45.563 4.798C45.0123 4.798 44.5457 5.00333 44.163 5.414C43.7803 5.81533 43.589 6.38467 43.589 7.122C43.589 7.85933 43.7757 8.43333 44.149 8.844C44.5223 9.24533 44.9843 9.446 45.535 9.446ZM53.9727 11.126C53.3381 11.126 52.7687 11.014 52.2647 10.79C51.7701 10.5567 51.3734 10.244 51.0747 9.852C50.7854 9.46 50.6267 9.026 50.5987 8.55H52.5727C52.6101 8.87667 52.7547 9.14267 53.0067 9.348C53.2587 9.544 53.5807 9.642 53.9727 9.642C54.3461 9.642 54.6354 9.56733 54.8407 9.418C55.0554 9.25933 55.1627 9.04933 55.1627 8.788C55.1627 8.536 55.0321 8.34467 54.7707 8.214C54.5187 8.08333 54.1081 7.948 53.5387 7.808C52.9694 7.668 52.5027 7.528 52.1387 7.388C51.7747 7.23867 51.4621 7.01 51.2007 6.702C50.9394 6.394 50.8087 5.988 50.8087 5.484C50.8087 5.04533 50.9254 4.64867 51.1587 4.294C51.4014 3.93 51.7514 3.64533 52.2087 3.44C52.6754 3.22533 53.2214 3.118 53.8467 3.118C54.7707 3.118 55.5081 3.35133 56.0587 3.818C56.6094 4.27533 56.9127 4.896 56.9687 5.68H55.0927C55.0647 5.35333 54.9341 5.092 54.7007 4.896C54.4767 4.7 54.1734 4.602 53.7907 4.602C53.4361 4.602 53.1607 4.67667 52.9647 4.826C52.7781 4.966 52.6847 5.162 52.6847 5.414C52.6847 5.67533 52.8154 5.876 53.0767 6.016C53.3381 6.14667 53.7441 6.282 54.2947 6.422C54.8547 6.562 55.3167 6.70667 55.6807 6.856C56.0447 7.00533 56.3574 7.234 56.6187 7.542C56.8801 7.84067 57.0107 8.24667 57.0107 8.76C57.0107 9.208 56.8894 9.614 56.6467 9.978C56.4041 10.3327 56.0541 10.6127 55.5967 10.818C55.1394 11.0233 54.5981 11.126 53.9727 11.126ZM58.1436 7.094C58.1436 6.31 58.2976 5.61467 58.6056 5.008C58.923 4.40133 59.3476 3.93467 59.8796 3.608C60.421 3.28133 61.023 3.118 61.6856 3.118C62.2643 3.118 62.7683 3.23467 63.1976 3.468C63.6363 3.70133 63.9863 3.99533 64.2476 4.35V3.244H66.2216V11H64.2476V9.866C63.9956 10.23 63.6456 10.5333 63.1976 10.776C62.759 11.0093 62.2503 11.126 61.6716 11.126C61.0183 11.126 60.421 10.958 59.8796 10.622C59.3476 10.286 58.923 9.81467 58.6056 9.208C58.2976 8.592 58.1436 7.88733 58.1436 7.094ZM64.2476 7.122C64.2476 6.646 64.1543 6.24 63.9676 5.904C63.781 5.55867 63.529 5.29733 63.2116 5.12C62.8943 4.93333 62.5536 4.84 62.1896 4.84C61.8256 4.84 61.4896 4.92867 61.1816 5.106C60.8736 5.28333 60.6216 5.54467 60.4256 5.89C60.239 6.226 60.1456 6.62733 60.1456 7.094C60.1456 7.56067 60.239 7.97133 60.4256 8.326C60.6216 8.67133 60.8736 8.93733 61.1816 9.124C61.499 9.31067 61.835 9.404 62.1896 9.404C62.5536 9.404 62.8943 9.31533 63.2116 9.138C63.529 8.95133 63.781 8.69 63.9676 8.354C64.1543 8.00867 64.2476 7.598 64.2476 7.122ZM75.256 11.098C74.5747 11.098 73.9587 10.9813 73.408 10.748C72.8667 10.5147 72.4373 10.1787 72.12 9.74C71.8027 9.30133 71.6393 8.78333 71.63 8.186H73.73C73.758 8.59667 73.898 8.92333 74.15 9.166C74.4113 9.40867 74.766 9.53 75.214 9.53C75.6713 9.53 76.0307 9.418 76.292 9.194C76.5533 8.97 76.684 8.67133 76.684 8.298C76.684 8.00867 76.5953 7.77067 76.418 7.584C76.2407 7.39733 76.0167 7.25267 75.746 7.15C75.4847 7.038 75.1207 6.91667 74.654 6.786C74.0193 6.59933 73.5013 6.41733 73.1 6.24C72.708 6.05333 72.3673 5.778 72.078 5.414C71.798 5.04067 71.658 4.546 71.658 3.93C71.658 3.35133 71.8027 2.84733 72.092 2.418C72.3813 1.98867 72.7873 1.662 73.31 1.438C73.8327 1.20467 74.43 1.088 75.102 1.088C76.11 1.088 76.9267 1.33533 77.552 1.83C78.1867 2.31533 78.5367 2.99667 78.602 3.874H76.446C76.4273 3.51 76.2827 3.22067 76.012 3.006C75.7507 2.782 75.4007 2.67 74.962 2.67C74.5793 2.67 74.2713 2.77267 74.038 2.978C73.814 3.174 73.702 3.468 73.702 3.86C73.702 4.12133 73.786 4.34067 73.954 4.518C74.1313 4.686 74.346 4.826 74.598 4.938C74.8593 5.04067 75.2233 5.162 75.69 5.302C76.3247 5.48867 76.8427 5.67533 77.244 5.862C77.6453 6.04867 77.9907 6.32867 78.28 6.702C78.5693 7.07533 78.714 7.56533 78.714 8.172C78.714 8.69467 78.5787 9.18 78.308 9.628C78.0373 10.076 77.6407 10.4353 77.118 10.706C76.5953 10.9673 75.9747 11.098 75.256 11.098ZM87.5393 4.252C87.5393 4.77467 87.4133 5.26467 87.1613 5.722C86.9186 6.17933 86.5313 6.548 85.9993 6.828C85.4766 7.108 84.8139 7.248 84.0113 7.248H82.3733V11H80.4133V1.228H84.0113C84.7673 1.228 85.4113 1.35867 85.9433 1.62C86.4753 1.88133 86.8719 2.24067 87.1333 2.698C87.4039 3.15533 87.5393 3.67333 87.5393 4.252ZM83.9273 5.708C84.4593 5.708 84.8559 5.57733 85.1173 5.316C85.3879 5.05467 85.5233 4.7 85.5233 4.252C85.5233 3.78533 85.3926 3.426 85.1313 3.174C84.8699 2.91267 84.4686 2.782 83.9273 2.782H82.3733V5.708H83.9273ZM88.4548 6.1C88.4548 5.13867 88.6695 4.28 89.0988 3.524C89.5375 2.75867 90.1302 2.166 90.8768 1.746C91.6328 1.31667 92.4775 1.102 93.4108 1.102C94.5028 1.102 95.4595 1.382 96.2808 1.942C97.1022 2.502 97.6762 3.27667 98.0028 4.266H95.7488C95.5155 3.818 95.1982 3.482 94.7968 3.258C94.3955 3.02467 93.9288 2.908 93.3968 2.908C92.8275 2.908 92.3188 3.03867 91.8708 3.3C91.4322 3.56133 91.0868 3.93467 90.8348 4.42C90.5922 4.90533 90.4708 5.46533 90.4708 6.1C90.4708 6.73467 90.5922 7.29467 90.8348 7.78C91.0868 8.256 91.4322 8.62933 91.8708 8.9C92.3188 9.16133 92.8275 9.292 93.3968 9.292C93.9288 9.292 94.3955 9.17533 94.7968 8.942C95.2075 8.70867 95.5248 8.368 95.7488 7.92H98.0028C97.6762 8.91867 97.1022 9.698 96.2808 10.258C95.4688 10.8087 94.5122 11.084 93.4108 11.084C92.4775 11.084 91.6328 10.874 90.8768 10.454C90.1302 10.0247 89.5375 9.432 89.0988 8.676C88.6695 7.92 88.4548 7.06133 88.4548 6.1ZM105.669 9.138H101.777L101.133 11H99.0749L102.589 1.214H104.871L108.385 11H106.313L105.669 9.138ZM105.151 7.612L103.723 3.482L102.295 7.612H105.151Z" fill="black"/>
</svg>
